<svg id="visual" viewBox="0 0 1920 1080" width="1920" height="1080" xmlns="http://www.w3.org/2000/svg" xmlns:xlink="http://www.w3.org/1999/xlink" version="1.1"><rect x="0" y="0" width="1920" height="1080" fill="#060714"></rect><path d="M0 694L175 564L349 846L524 650L698 805L873 570L1047 576L1222 764L1396 675L1571 548L1745 841L1920 759L1920 1081L1745 1081L1571 1081L1396 1081L1222 1081L1047 1081L873 1081L698 1081L524 1081L349 1081L175 1081L0 1081Z" fill="#b7bec0"></path><path d="M0 653L175 818L349 899L524 685L698 686L873 691L1047 711L1222 738L1396 773L1571 649L1745 885L1920 669L1920 1081L1745 1081L1571 1081L1396 1081L1222 1081L1047 1081L873 1081L698 1081L524 1081L349 1081L175 1081L0 1081Z" fill="#8f9998"></path><path d="M0 871L175 847L349 754L524 749L698 868L873 848L1047 895L1222 805L1396 852L1571 932L1745 747L1920 799L1920 1081L1745 1081L1571 1081L1396 1081L1222 1081L1047 1081L873 1081L698 1081L524 1081L349 1081L175 1081L0 1081Z" fill="#6c756e"></path><path d="M0 843L175 847L349 804L524 869L698 846L873 964L1047 788L1222 900L1396 937L1571 853L1745 790L1920 905L1920 1081L1745 1081L1571 1081L1396 1081L1222 1081L1047 1081L873 1081L698 1081L524 1081L349 1081L175 1081L0 1081Z" fill="#4f5147"></path><path d="M0 926L175 962L349 922L524 969L698 989L873 893L1047 973L1222 904L1396 891L1571 976L1745 943L1920 945L1920 1081L1745 1081L1571 1081L1396 1081L1222 1081L1047 1081L873 1081L698 1081L524 1081L349 1081L175 1081L0 1081Z" fill="#362f25"></path><path d="M0 1006L175 1028L349 981L524 1024L698 965L873 942L1047 956L1222 973L1396 1040L1571 961L1745 979L1920 938L1920 1081L1745 1081L1571 1081L1396 1081L1222 1081L1047 1081L873 1081L698 1081L524 1081L349 1081L175 1081L0 1081Z" fill="#1f0f04"></path></svg>