<svg id="visual" viewBox="0 0 1920 1080" width="1920" height="1080" xmlns="http://www.w3.org/2000/svg" xmlns:xlink="http://www.w3.org/1999/xlink" version="1.1"><rect x="0" y="0" width="1920" height="1080" fill="#001220"></rect><defs><linearGradient id="grad1_0" x1="43.8%" y1="0%" x2="100%" y2="100%"><stop offset="14.444444444444446%" stop-color="#fbae3c" stop-opacity="1"></stop><stop offset="85.55555555555554%" stop-color="#fbae3c" stop-opacity="1"></stop></linearGradient></defs><defs><linearGradient id="grad1_1" x1="43.8%" y1="0%" x2="100%" y2="100%"><stop offset="14.444444444444446%" stop-color="#fbae3c" stop-opacity="1"></stop><stop offset="85.55555555555554%" stop-color="#001220" stop-opacity="1"></stop></linearGradient></defs><defs><linearGradient id="grad2_0" x1="0%" y1="0%" x2="56.3%" y2="100%"><stop offset="14.444444444444446%" stop-color="#fbae3c" stop-opacity="1"></stop><stop offset="85.55555555555554%" stop-color="#fbae3c" stop-opacity="1"></stop></linearGradient></defs><defs><linearGradient id="grad2_1" x1="0%" y1="0%" x2="56.3%" y2="100%"><stop offset="14.444444444444446%" stop-color="#001220" stop-opacity="1"></stop><stop offset="85.55555555555554%" stop-color="#fbae3c" stop-opacity="1"></stop></linearGradient></defs><g transform="translate(1920, 0)"><path d="M0 648C-86.5 585.7 -173 523.4 -275.5 477.2C-378 431 -496.4 400.8 -561.2 324C-625.9 247.2 -637 123.6 -648 0L0 0Z" fill="#96446e"></path><path d="M0 324C-43.3 292.8 -86.5 261.7 -137.7 238.6C-189 215.5 -248.2 200.4 -280.6 162C-313 123.6 -318.5 61.8 -324 0L0 0Z" fill="#fbae3c"></path></g><g transform="translate(0, 1080)"><path d="M0 -648C91 -593.5 182.1 -539.1 284 -491.9C385.9 -444.7 498.7 -404.8 561.2 -324C623.7 -243.2 635.8 -121.6 648 0L0 0Z" fill="#96446e"></path><path d="M0 -324C45.5 -296.8 91 -269.5 142 -246C193 -222.4 249.4 -202.4 280.6 -162C311.8 -121.6 317.9 -60.8 324 0L0 0Z" fill="#fbae3c"></path></g></svg>