<svg id="visual" viewBox="0 0 540 960" width="540" height="960" xmlns="http://www.w3.org/2000/svg" xmlns:xlink="http://www.w3.org/1999/xlink" version="1.1"><rect x="0" y="0" width="540" height="960" fill="#001220"></rect><defs><linearGradient id="grad1_0" x1="0%" y1="0%" x2="100%" y2="100%"><stop offset="30%" stop-color="#fbae3c" stop-opacity="1"></stop><stop offset="70%" stop-color="#fbae3c" stop-opacity="1"></stop></linearGradient></defs><defs><linearGradient id="grad1_1" x1="0%" y1="0%" x2="100%" y2="100%"><stop offset="30%" stop-color="#fbae3c" stop-opacity="1"></stop><stop offset="70%" stop-color="#001220" stop-opacity="1"></stop></linearGradient></defs><defs><linearGradient id="grad2_0" x1="0%" y1="0%" x2="100%" y2="100%"><stop offset="30%" stop-color="#fbae3c" stop-opacity="1"></stop><stop offset="70%" stop-color="#fbae3c" stop-opacity="1"></stop></linearGradient></defs><defs><linearGradient id="grad2_1" x1="0%" y1="0%" x2="100%" y2="100%"><stop offset="30%" stop-color="#001220" stop-opacity="1"></stop><stop offset="70%" stop-color="#fbae3c" stop-opacity="1"></stop></linearGradient></defs><g transform="translate(540, 0)"><path d="M0 324C-48.7 302.3 -97.4 280.6 -148 256.3C-198.6 232.1 -251 205.2 -280.6 162C-310.2 118.8 -317.1 59.4 -324 0L0 0Z" fill="#96446e"></path><path d="M0 162C-24.4 151.2 -48.7 140.3 -74 128.2C-99.3 116 -125.5 102.6 -140.3 81C-155.1 59.4 -158.6 29.7 -162 0L0 0Z" fill="#fbae3c"></path></g><g transform="translate(0, 960)"><path d="M0 -324C59.3 -317 118.6 -310.1 162 -280.6C205.4 -251.1 232.9 -199 257.2 -148.5C281.6 -98 302.8 -49 324 0L0 0Z" fill="#96446e"></path><path d="M0 -162C29.7 -158.5 59.3 -155 81 -140.3C102.7 -125.5 116.4 -99.5 128.6 -74.3C140.8 -49 151.4 -24.5 162 0L0 0Z" fill="#fbae3c"></path></g></svg>