<svg id="visual" viewBox="0 0 1920 1080" width="1920" height="1080" xmlns="http://www.w3.org/2000/svg" xmlns:xlink="http://www.w3.org/1999/xlink" version="1.1"><rect x="0" y="0" width="1920" height="1080" fill="#8a8b92"></rect><path d="M0 740L175 734L349 544L524 583L698 860L873 705L1047 854L1222 747L1396 735L1571 681L1745 814L1920 780L1920 1081L1745 1081L1571 1081L1396 1081L1222 1081L1047 1081L873 1081L698 1081L524 1081L349 1081L175 1081L0 1081Z" fill="#48642e"></path><path d="M0 819L175 891L349 793L524 842L698 623L873 699L1047 630L1222 797L1396 826L1571 712L1745 807L1920 904L1920 1081L1745 1081L1571 1081L1396 1081L1222 1081L1047 1081L873 1081L698 1081L524 1081L349 1081L175 1081L0 1081Z" fill="#3f5725"></path><path d="M0 773L175 733L349 800L524 811L698 865L873 780L1047 721L1222 765L1396 775L1571 863L1745 909L1920 932L1920 1081L1745 1081L1571 1081L1396 1081L1222 1081L1047 1081L873 1081L698 1081L524 1081L349 1081L175 1081L0 1081Z" fill="#36491d"></path><path d="M0 786L175 820L349 938L524 857L698 879L873 824L1047 941L1222 820L1396 848L1571 875L1745 848L1920 785L1920 1081L1745 1081L1571 1081L1396 1081L1222 1081L1047 1081L873 1081L698 1081L524 1081L349 1081L175 1081L0 1081Z" fill="#2d3d15"></path><path d="M0 996L175 913L349 923L524 1006L698 974L873 877L1047 899L1222 872L1396 996L1571 969L1745 975L1920 976L1920 1081L1745 1081L1571 1081L1396 1081L1222 1081L1047 1081L873 1081L698 1081L524 1081L349 1081L175 1081L0 1081Z" fill="#24300d"></path><path d="M0 990L175 959L349 997L524 997L698 940L873 979L1047 1031L1222 979L1396 940L1571 973L1745 969L1920 1005L1920 1081L1745 1081L1571 1081L1396 1081L1222 1081L1047 1081L873 1081L698 1081L524 1081L349 1081L175 1081L0 1081Z" fill="#1c2401"></path></svg>