<svg width="363" height="339" viewBox="0 0 363 339" fill="none" xmlns="http://www.w3.org/2000/svg">
<rect width="363" height="339" fill="#1E1E1E"/>
<rect id="Rectangle 6" width="363" height="339" fill="#8A8B92"/>
<circle id="Ellipse 1" cx="183.5" cy="170.5" r="162.5" fill="#E97251"/>
<g id="H">
<rect id="Rectangle 2" x="118.2" y="89.5" width="35.9133" height="163" fill="#8A8B92"/>
<rect id="Rectangle 5" x="118.2" y="155.76" width="129.6" height="30.4797" fill="#8A8B92"/>
<rect id="Rectangle 3" x="211.887" y="89.5" width="35.9133" height="163" fill="#8A8B92"/>
</g>
<path id="2" d="M251.861 114V104.898L270.96 88.1761C272.392 86.8807 273.611 85.696 274.616 84.6222C275.622 83.5312 276.389 82.4403 276.918 81.3494C277.446 80.2415 277.71 79.0398 277.71 77.7443C277.71 76.2955 277.395 75.0597 276.764 74.0369C276.134 72.9972 275.264 72.196 274.156 71.6335C273.048 71.071 271.778 70.7898 270.347 70.7898C268.898 70.7898 267.628 71.0881 266.537 71.6847C265.446 72.2642 264.594 73.108 263.98 74.2159C263.384 75.3239 263.085 76.6705 263.085 78.2557H251.094C251.094 74.6932 251.895 71.6165 253.497 69.0256C255.099 66.4347 257.349 64.4403 260.247 63.0426C263.162 61.6278 266.545 60.9205 270.398 60.9205C274.369 60.9205 277.821 61.5852 280.753 62.9148C283.685 64.2443 285.952 66.1023 287.554 68.4886C289.173 70.858 289.983 73.6108 289.983 76.7472C289.983 78.7415 289.582 80.7187 288.781 82.679C287.98 84.6392 286.54 86.804 284.46 89.1733C282.398 91.5426 279.466 94.3807 275.665 97.6875L269.401 103.466V103.798H290.622V114H251.861Z" fill="#8A8B92"/>
</svg>
