<svg width="842" height="155" viewBox="0 0 842 155" fill="none" xmlns="http://www.w3.org/2000/svg">
<rect width="842" height="155" fill="#1E1E1E"/>
<rect width="842" height="155" fill="#8A8B92"/>
<rect x="294" y="16.449" width="83" height="23" fill="#E97251"/>
<rect x="294" y="67.449" width="83" height="23" fill="#E97251"/>
<rect x="397" y="139.449" width="83" height="23" transform="rotate(-90 397 139.449)" fill="#E97251"/>
<rect x="294" y="116.449" width="83" height="23" fill="#E97251"/>
<rect x="47" y="16.449" width="23" height="123" fill="#E97251"/>
<rect x="47" y="66.449" width="83" height="23" fill="#E97251"/>
<rect x="107" y="16.449" width="23" height="123" fill="#E97251"/>
<rect x="507" y="12.449" width="23" height="123" fill="#E97251"/>
<rect x="507" y="62.449" width="83" height="23" fill="#E97251"/>
<rect x="567" y="12.449" width="23" height="123" fill="#E97251"/>
<path d="M173 16.449V139.449H150V28.449L173 16.449Z" fill="#E97251"/>
<rect x="193" y="16.449" width="23" height="123" fill="#E97251"/>
<path d="M254.505 15.4874L282.35 16.3859L212.083 98.219L193 81.8331L254.505 15.4874Z" fill="#E97251"/>
<path d="M260.856 108.064L286.004 140.47L258.779 142.089L232.642 109.742L260.856 108.064Z" fill="#183F7A"/>
<path d="M461.214 106.226L486.362 138.632L459.137 140.251L433 107.904L461.214 106.226Z" fill="#183F7A"/>
<path d="M617 95.825H700V95.825C700 118.745 681.42 137.449 658.5 137.449V137.449C635.58 137.449 617 118.745 617 95.825V95.825Z" fill="#E97251"/>
<path d="M617 16.449H640V101.633H617V16.449Z" fill="#E97251"/>
<path d="M677 16.449H700V101.633H677V16.449Z" fill="#E97251"/>
<rect x="640" y="116.153" width="36.784" height="37" rx="18.392" transform="rotate(-90 640 116.153)" fill="#8A8B92"/>
<path d="M719 12.449H772C788.569 12.449 802 25.8804 802 42.449V42.449C802 59.0175 788.569 72.449 772 72.449H719V12.449Z" fill="#E97251"/>
<path d="M719 70.449H772C788.569 70.449 802 83.8804 802 100.449V100.449C802 117.018 788.569 130.449 772 130.449H719V70.449Z" fill="#E97251"/>
<path d="M742 28.449H762.5C771.06 28.449 778 35.3886 778 43.949V43.949C778 52.5094 771.06 59.449 762.5 59.449H742V28.449Z" fill="#8A8B92"/>
<path d="M742 83.449H762.5C771.06 83.449 778 90.3886 778 98.949V98.949C778 107.509 771.06 114.449 762.5 114.449H742V83.449Z" fill="#8A8B92"/>
<path d="M397 16.449H449C466.121 16.449 480 30.3281 480 47.449V47.449C480 64.5698 466.121 78.449 449 78.449H397V16.449Z" fill="#E97251"/>
<path d="M421 31.449H440.983C449.829 31.449 457 38.6199 457 47.4656V47.4656C457 56.3114 449.829 63.4823 440.983 63.4823H421V31.449Z" fill="#8A8B92"/>
</svg>
